<?xml version="1.0" encoding="UTF-8"?>
<svg id="Layer_1" xmlns="http://www.w3.org/2000/svg" viewBox="0 0 1239.39 209.05">
  <defs>
    <style>
      .cls-1 {
        isolation: isolate;
      }
    </style>
  </defs>
  <g class="cls-1">
    <g class="cls-1">
      <path d="M0,0h96.78c67.25,0,110.52,34.79,110.52,102.33s-43.86,102.33-111.1,102.33H0V0ZM73.39,50.29v104.96h19c24.85,0,40.06-14.03,40.06-52.63s-15.2-52.34-40.06-52.34h-19Z"/>
    </g>
    <g class="cls-1">
      <path d="M219.58,0h73.39v156.71h106.13v47.95h-179.52V0Z"/>
    </g>
    <g class="cls-1">
      <path d="M478.04,0h84.5l75.14,204.66h-74.26l-11.4-35.96h-67.83l-11.4,35.96h-70.17L478.04,0ZM497.04,128.06h42.1l-21.05-67.54-21.05,67.54Z"/>
    </g>
    <g class="cls-1">
      <path d="M628.03,123.67V0h73.39v128.64c0,17.83,11.4,27.78,28.36,27.78s28.36-9.94,28.36-27.48V0h71.92v123.97c0,54.67-37.13,85.08-101.45,85.08s-100.58-30.7-100.58-85.37Z"/>
      <path d="M844.98,0h74.85l32.45,55.84,32.16,57.01-.88-57.31V0h60.23v204.66h-74.85l-32.45-55.55-31.87-56.72.58,57.01v55.26h-60.23V0Z"/>
      <path d="M1059.58,0h179.81v47.07h-106.72v31.58h79.53v44.73h-79.53v35.67h106.72v45.61h-179.81V0Z"/>
    </g>
  </g>
</svg>