<?xml version="1.0" encoding="UTF-8"?>
<svg id="Ebene_1" xmlns="http://www.w3.org/2000/svg" viewBox="0 0 2718 3583.27">
  <defs>
    <style>
      .cls-1 {
        fill: none;
      }

      .cls-2 {
        fill: #fff;
      }
    </style>
  </defs>
  <g>
    <path class="cls-1" d="M590.41,1111.69c0,106.24,23.4,209.3,69.55,306.32,44.58,93.72,108.39,177.89,189.67,250.17,81.28,72.28,175.94,129.04,281.34,168.68,65.89,24.78,134.26,42.19,204.4,52.09.16.03.33.05.5.07.17.03.33.05.5.08,5.61.78,11.22,1.52,16.84,2.21V332.07c-5.63.69-11.24,1.43-16.84,2.21-.17.03-.33.05-.5.08-.17.02-.34.04-.5.07-70.15,9.89-138.51,27.3-204.4,52.08-105.4,39.65-200.06,96.4-281.34,168.68-81.28,72.28-145.09,156.45-189.67,250.17-46.15,97.02-69.55,200.09-69.55,306.33Z"/>
    <path class="cls-1" d="M1597.79,332.08v1559.22c76.4-9.36,150.78-27.56,222.24-54.44,105.4-39.64,200.06-96.4,281.34-168.68,81.28-72.28,145.09-156.45,189.67-250.17,46.15-97.02,69.55-200.08,69.55-306.32s-23.4-209.31-69.55-306.33c-44.58-93.72-108.39-177.89-189.67-250.17-81.28-72.28-175.94-129.03-281.34-168.68-71.46-26.88-145.84-45.08-222.24-54.43Z"/>
    <path class="cls-1" d="M1353.21,2133.22c-5.63-.52-11.24-1.08-16.84-1.68-.17-.01-.33-.03-.5-.05s-.33-.03-.5-.05c-106.17-11.41-209.45-35.86-308.46-73.09-137.23-51.62-260.48-125.52-366.33-219.64-52.16-46.38-99.5-97.42-140.74-151.69-41.19-54.21-76.62-112.14-105.34-172.19v788.17h938.71v-169.78Z"/>
    <path class="cls-2" d="M2717.5,2302.99c.17-41.66.33-83.33.5-124.99-9.23,18.47-25.76,45.87-54,72-33.23,30.75-67.54,45.71-88.62,52.99h-977.58s0-169.76,0-169.76c112.43-10.5,221.75-35.56,326.3-74.88,137.23-51.62,260.48-125.52,366.33-219.64,52.16-46.38,99.5-97.42,140.74-151.69,41.63-54.79,77.38-113.37,106.27-174.1,60.1-126.37,90.58-260.6,90.58-398.98s-30.47-272.61-90.58-398.97c-28.89-60.74-64.64-119.31-106.27-174.11-41.24-54.27-88.58-105.3-140.74-151.68-105.85-94.13-229.1-168.02-366.33-219.64-142.09-53.44-293.01-80.54-448.59-80.54s-306.5,27.1-448.59,80.54c-137.23,51.62-260.48,125.51-366.33,219.64-52.16,46.38-99.5,97.41-140.74,151.68-41.19,54.22-76.62,112.14-105.34,172.2V135.06l.03,8.94c7.1-20.94,22.05-56.04,53.47-90,26.13-28.24,53.53-44.77,72-54-41.83.17-83.67.33-125.5.5v-.5H125.5v.5C83.67.33,41.83.17,0,0c18.47,9.23,45.87,25.76,72,54,31.42,33.96,46.37,69.06,53.47,90l.03-8.94v2456.94h289s2303,0,2303,0h.5v-288.5s0-.5,0-.5h-.5ZM849.62,555.19c81.28-72.28,175.94-129.03,281.34-168.68,65.89-24.78,134.26-42.19,204.4-52.08.16-.03.33-.05.5-.07.17-.03.33-.05.5-.08,5.61-.78,11.22-1.52,16.84-2.21v1559.24c-5.63-.69-11.24-1.43-16.84-2.21-.17-.03-.33-.05-.5-.08-.17-.02-.34-.04-.5-.07-70.15-9.9-138.51-27.31-204.4-52.09-105.4-39.64-200.06-96.4-281.34-168.68-81.28-72.28-145.09-156.45-189.67-250.17-46.15-97.02-69.55-200.08-69.55-306.32s23.4-209.31,69.55-306.33c44.58-93.72,108.39-177.89,189.67-250.17ZM2291.05,805.36c46.15,97.02,69.55,200.09,69.55,306.33s-23.4,209.3-69.55,306.32c-44.58,93.72-108.39,177.89-189.67,250.17-81.28,72.28-175.94,129.04-281.34,168.68-71.46,26.88-145.84,45.08-222.24,54.44V332.08c76.4,9.35,150.78,27.55,222.24,54.43,105.4,39.65,200.06,96.4,281.34,168.68,81.28,72.28,145.09,156.45,189.67,250.17ZM414.5,1514.83c28.73,60.05,64.15,117.98,105.34,172.19,41.24,54.27,88.58,105.31,140.74,151.69,105.85,94.12,229.1,168.02,366.33,219.64,99,37.23,202.29,61.68,308.46,73.09.17.02.33.03.5.05s.33.04.5.05c5.61.6,11.22,1.16,16.84,1.68v169.78H414.5s0-788.17,0-788.17Z"/>
    <path class="cls-2" d="M2574,2592.53c20.94,7.1,56.04,22.05,90,53.47,28.24,26.13,44.77,53.53,54,72-.17-42-.33-84-.5-126l-143.5.53Z"/>
  </g>
  <text/>
  <text/>
</svg>