<?xml version="1.0" encoding="UTF-8"?>
<svg id="Design" xmlns="http://www.w3.org/2000/svg" viewBox="0 0 2160 2592">
  <defs>
    <style>
      .cls-1 {
        fill: #000101;
      }
    </style>
  </defs>
  <path class="cls-1" d="M1063.21,273.52c10.5.64,20.43-2.29,30.37-4.84,19.48-5,37.78-1.95,54.67,8.63,6.71,4.2,13.56,6.89,21.12,7.83,23.18,2.87,41.71,14.71,57.72,31.48,4.56,4.78,8.75,9.95,13.47,14.55,2.26,2.2,5.31,4.89,8.06,4.95,11.03.26,20.9,4.75,31.7,9.3.79-3.19,1.81-5.2,1.68-7.14-1.08-16.69-9.05-29.45-21.32-39.87-11.29-9.58-22.38-19.42-33.46-29.26-11.13-9.88-22.84-18.86-36.07-25.56-31.16-15.77-63.58-17.9-96.26-7.02-14.3,4.76-27.59,12.84-41.18,19.74-3.19,1.62-5.76,4.56-8.68,6.96,9.34,9.93,9.35,9.7,18.17,10.24Z"/>
  <path class="cls-1" d="M1130.76,351.43c9.98-1.66,19.32-3.14,27.14-8.95-.18-14.09-1.36-18.86-6.21-27.92-3.5-6.54-8.38-11.64-14.53-15.45-7.53-4.66-15.59-7.88-24.5-7.9-6.21-.02-12.7-.92-18.15,2.62.18,1.69.04,2.45.33,2.71,4.81,4.4,9.52,8.95,14.57,13.06,11.57,9.4,20.19,20.3,19.29,36.67-.05.97.76,2,2.06,5.16Z"/>
  <g>
    <path class="cls-1" d="M1129.62,871.04c-16.2-.2-30.02,6.53-45.7,9.23,0,4.51.06,8.34-.01,12.18-.19,10.06-.17,20.14-.72,30.18-1.74,31.82-3.58,63.64-5.64,95.44-.98,15.06-1.81,30.19-3.98,45.1-6.99,47.87-7,95.8-3.17,143.93,2.98,37.4,2.96,74.88.5,112.34-2.09,31.8-4.27,63.59-6.07,95.4-.82,14.51-1.15,29.07-1.12,43.61.07,36.91.03,73.82.89,110.71.49,21.22,3.12,42.38,3.94,63.6,1.25,32.41,1.73,64.86,2.61,97.29.78,28.52,1.65,57.03,2.51,85.54.54,17.88,1.24,35.75,1.66,53.64.26,11.18.17,22.37.19,33.55.06,31.32.14,62.64.12,93.95-.03,35.24-.34,70.47-.15,105.71.06,11.16,2.15,22.34,1.89,33.48-.97,41.49,2.21,82.69,6.53,123.88,1.63,15.54,1.92,31.27,1.98,46.92.13,32.43-.37,64.87-.48,97.31-.03,8.94.3,17.89.78,26.82.14,2.58,1.37,5.1,3.15,11.26,4.11-7.46,6.3-11.22,8.28-15.1,6.32-12.36,11.73-25.33,19.07-37,7.86-12.51,10.58-25.34,7.98-39.74-.5-2.74-.72-5.55-.86-8.34-.76-14.5-2-28.99-2.05-43.5-.1-32.44.65-64.88.56-97.32-.04-13.41-1.6-26.8-2.01-40.21-.42-13.95-.4-27.92-.35-41.88.06-16.21,1.03-32.45.42-48.63-.82-21.78-2.8-43.52-4.22-65.28-1.17-17.86-3.05-35.71-3.21-53.58-.5-54.83-.47-109.66-.33-164.49.06-21.8,1.39-43.61,1.32-65.41-.06-21.8-1.02-43.61-1.84-65.4-.4-10.61-1.13-21.22-2.14-31.79-5.12-53.46-9.4-106.94-8.16-160.76.4-17.32-.49-34.68-1.03-52.01-.54-17.32-2.33-34.67-1.86-51.95.83-30.17,2.95-60.3,4.58-90.45.97-17.87,1.59-35.78,3.2-53.58,3.07-33.98,5.97-67.96,6.06-102.12.01-3.91.19-7.83.42-11.74,2.88-49.13,5.76-98.25,8.71-147.37.44-7.25,1.06-14.5,1.92-21.7,2.14-17.75,4.54-35.47,6.64-53.23.3-2.56-.48-5.25-.83-8.49Z"/>
    <path class="cls-1" d="M961.23,669.5c3.59,4.8,7.37,9.57,13.61,12.65,9.86-5.89,17.87-14.21,26.33-21.91,10.96-9.98,21.78-20.13,33.02-29.76,21.29-18.22,23.5-18.78,16.91-50.12-10.41-49.44-27.96-96.3-50.19-141.29-3.92-7.94-8.93-15.32-13.67-22.79-1.37-2.16-2.95-4.9-7.17-3.56-.81,1.28-2.12,3.01-3.09,4.92-9.76,19.33-19.42,38.71-29.19,58.03-10.63,21.02-17.01,43.26-20.53,66.75-7.16,47.84,5.87,89.52,33.96,127.07Z"/>
    <path class="cls-1" d="M1333.83,440.25c-16.19-7.23-23.59-4.03-33.49,12.83,5.1,24.19,5.9,37.94,3.86,54.22-5.23,41.77-23.85,76.03-53.83,104.22-16.57,15.58-34.76,28.64-55.12,38.11-23.18,10.78-46.58,21.12-70.23,30.72-16.81,6.82-32.23,15.81-46.62,26.88-1.89,1.45-4.82,2.92-2.33,7.15,2.88-.72,6-1.33,9.02-2.28,24.34-7.65,48.72-15.15,71.31-27.63,10.48-5.79,21.55-6.82,33.09-3.87,4.71,1.2,9.56,1.89,14.37,2.61,19.9,2.96,37.68-1.26,52.07-16.7,7.08-7.6,15.78-11.68,25.88-12.5,10.24-.83,20.5-1.44,30.76-2.12,16.74-1.1,29.96-8.57,39.61-22.87,8.58-12.71,14.3-26.51,13.77-42.17-.38-11.12-1.76-22.24-3.33-33.26-.99-6.98-1.09-13.3,3.78-18.9,1.42-1.64,2.61-3.62,3.47-5.65,6.6-15.75,11.13-32,3.64-48.56-8.29-18.32-21.67-32.16-39.71-40.22Z"/>
    <path class="cls-1" d="M1317.48,410.6c4.3,1.04,7.37,2.11,10.52,2.49,9.91,1.19,18.87,5.1,27.11,10.55,14.31,9.46,26.09,21.77,35.29,36.49,9.89,15.82,12.48,33.26,8.11,51.46-2.2,9.16-5.3,18.17-8.84,26.87-1.97,4.83-3.24,9.35-2.47,14.51.58,3.86.88,7.77,1.52,11.63,5.41,32.93-2.42,61.99-23.57,87.3-2.77,3.31-5.73,7.01-6.92,11.06-6.42,21.84-18.32,40.34-31.85,57.95-2.24,2.91-4.08,6.14-7.44,11.27,4.16-.94,6.31-.93,7.93-1.87,13.18-7.69,26.62-14.99,39.29-23.51,15.57-10.47,28.2-24.3,38.52-40.32,14.84-23.05,25.12-48.12,31.33-75.01,5.77-25,6.55-49.6-3.07-74.09-5.92-15.09-8.61-31.15-8.52-47.54.04-7.76-1.84-14.68-8.37-18.93-19.32-12.55-33.68-29.47-43.68-50.61-3.23-6.84-9.11-11.08-16.35-12.71-13.76-3.1-27.65-3.13-42.56-2.26,1.39,8.67,2.61,16.23,4.06,25.28Z"/>
    <path class="cls-1" d="M1055.33,507.03c3.11,8.93,5.87,17.99,8.91,26.96,2.96,8.75,3.22,18.56,9.8,27.36,2.92-4.31,5.49-7.76,7.71-11.43,6.18-10.18,13.95-19.2,24.61-23.64,14.16-5.91,26.69-14.07,38.69-23.53,6.01-4.73,12.81-8.4,18.76-13.2,6.8-5.48,13.4-11.32,19.38-17.71,2.82-3.02,5.17-7.52,5.71-11.63,1.75-13.26,2.7-26.64,3.62-40,.16-2.37-1.32-4.87-2.41-8.54-4.87,2.77-8.65,4.65-12.17,6.98-14.68,9.7-30.36,17.15-46.98,22.44-22.88,7.28-46.29,11.14-70.27,11.44-7.5.09-15.11-1.09-24.35,1.73,1.98,10.68,6.72,18.91,9.78,27.71,2.93,8.41,6.28,16.66,9.21,25.07Z"/>
    <path class="cls-1" d="M998.82,755.96c-28.07,2.27-55.93,6.3-83.61,11.56-9.03,1.72-18.05,3.7-26.89,6.24-9.44,2.71-18.29,7.07-25.82,13.7-6.99,6.14-7.69,13.36-1.59,20.49,3.54,4.13,7.83,7.74,12.27,10.85,18.99,13.34,39.86,22.63,62.07,28.28,9.35,2.38,19.25,2.47,28.89,3.64,11.02,1.34,18.88-4.05,24.49-13.07,3.18-5.1,5.7-10.78,7.71-16.5,6.27-17.86,12.19-35.85,18.16-53.82,1.01-3.04,1.55-6.26,2.79-11.42-7.75,0-13.14-.37-18.46.06Z"/>
    <path class="cls-1" d="M1200.99,796.6c1.63-1.45,2.03-4.36,3.18-7.02-2.81-.58-4.39-1.23-5.95-1.18-37.51,1.16-74.21-5.19-110.82-12.49-10.07-2.01-20.15-3.97-30.29-5.56-5.22-.81-10.56-.75-15.15-1.03-9.19,14.15-22.82,54.57-24.44,71.56,1.18.89,2.35,2.1,3.76,2.77,24.46,11.58,50.18,13.28,76.12,8.31,27.89-5.34,53.69-16.94,77.25-33.22,9.37-6.47,17.76-14.5,26.33-22.14Z"/>
    <path class="cls-1" d="M1157.33,762.05c44.43,5.75,85.96-.95,122.67-30.37,16.51-13.23,30.59-28.19,41.63-46.33,1.3-2.13,1.7-4.85,3.09-8.98-10.61-.61-19.65,1.19-28.66,1.07-11.28-.15-20.71,3.28-29.18,11.79-13.34,13.39-30.1,19.58-48.74,19.09-9.67-.25-19.39-1.12-28.93-2.74-9.34-1.59-17.98-1.81-26.7,3.07-21.51,12.04-44.82,19.29-68.25,26.11-7.79,2.27-15.55,4.72-23.2,7.45-1.54.55-2.54,2.73-4.23,4.68,2.64,1.11,4.04,2.03,5.53,2.26,28.31,4.39,56.57,9.23,84.96,12.9Z"/>
    <path class="cls-1" d="M791.72,593.43c-4.18-2.28-8.31-5.42-14.14-2.95-4.16,6.68-5,14.3-3.21,22.14,1.6,7.05,3.54,14.07,5.99,20.85,4.73,13.09,13.31,22.77,25.35,29.33,11.1,6.05,22.67,10.73,35.02,12.83,30.11,5.14,59.1,13.56,85.7,29.53,2.14,1.29,4.73,1.78,10.8,3.98-4.57-5.94-6.37-9.12-8.91-11.45-17.8-16.34-35.47-32.85-53.71-48.64-25.41-21.99-53.63-39.67-82.89-55.62Z"/>
    <path class="cls-1" d="M1050.69,646.29c-8.44,8.62-17.31,16.8-26.27,24.85-13.02,11.69-26.29,23.09-39.44,34.62-2.37,2.08-4.74,4.18-6.74,5.95.54,2.13.53,3.39,1.1,4.18,12.45,16.99,14.56,17.73,35.29,17.3,7.24-.15,12.23-2.44,15.82-9.08,6.13-11.31,14.38-20.9,24.11-29.06,18.11-15.2,37.43-28.32,59.5-36.71,10.63-4.04,21.14-8.44,31.69-12.69,2.57-1.04,5.03-2.2,3.92-6.12-1.43-.4-2.92-1.16-4.44-1.21-23.19-.73-46.39-1.55-69.59-1.94-9.42-.16-17.89,2.71-24.95,9.92Z"/>
    <path class="cls-1" d="M774.31,514.22c-3.67,7.73-2.86,14.85,1.48,22.2,4.18,7.09,7.78,14.61,11.04,22.21,1.9,4.44,4.83,7.08,8.8,9.24,10.52,5.72,20.88,11.74,31.37,17.51,2.15,1.18,4.6,1.77,8.51,3.24-.81-8.26-5.16-12.61-8.17-17.49-12.99-21.1-17.92-44.02-15.07-68.8,3-26.05,15.19-46.12,36.56-60.27,3.1-2.05,6.15-4.17,10.17-6.9-2.71-2.55-4.29-5.05-6.48-5.91-6.54-2.57-13.18-5.21-20.02-6.53-19.48-3.74-36.37,7.38-39.51,27.68-3.45,22.29-9.1,43.6-18.7,63.82Z"/>
    <path class="cls-1" d="M1037.41,398.27c-1.22,10.26-7.5,19.52-6.42,30.4,2.31.53,3.88,1.23,5.43,1.2,28.72-.48,57.17-3.02,84.85-11.68,20.18-6.31,20.27-6.23,26.62-26.53,1.6-5.12,4.74-10.22,1.14-17.3-10.77,1.44-20.88,3.2-31.06,4.07-21.32,1.82-41.77-4.06-62.38-8.33-4.62-.96-9.1-3.61-14.65-1.23-1.16,9.66-2.35,19.53-3.52,29.41Z"/>
    <path class="cls-1" d="M1263.47,365.7c-1.25-.66-3.1-.09-5.51-.09-.32,4.33-.63,8.66-.96,12.98-1.52,19.74-5.73,38.72-16.24,55.57-17.93,28.73-36.88,56.61-64.4,76.8-1.23.9-2,2.48-3.77,4.74,1.58,1.01,2.02,1.51,2.5,1.56,1.59.17,3.28.53,4.8.19,18.14-4.09,35.53-10.2,49.88-22.89,21.9-19.38,40.23-42.15,56.95-66.3,6-8.67,7.34-18.71,4.14-28.81-4.72-14.92-13.67-26.52-27.38-33.75Z"/>
    <path class="cls-1" d="M912.87,455.03c-3.65,14.51-5.6,29.41-5.2,48.02,3.52-4.4,4.9-5.46,5.4-6.85,10.13-27.86,23.68-53.94,38.57-79.33,2.8-4.78,5.25-9.77,7.89-14.65,4.85-8.97,7.44-18.28,6.53-28.86-1.22-14.25,2.67-27.68,8.39-40.56,5.76-12.96,15.61-21.05,28.31-26.05,11.16-4.4,22.16-4.01,33.58,1.17,3.04-3.63,5.7-6.81,8.23-9.83-12.44-15.97-26.82-16.69-42.96-9.52-20.25,8.99-35.56,23.17-44.63,44.13-4.41,10.21-8.25,20.7-13.06,30.7-14.05,29.23-23.16,60.23-31.06,91.63Z"/>
    <path class="cls-1" d="M1039.22,1478.66c2.94-10.32,3.05-20.79,3.41-31.28,1.07-30.68,2.19-61.35,3.71-92.01.97-19.51,3.03-38.95,3.97-58.46,1.69-35.19.3-70.33-3-105.39-.24-2.57-.97-5.08-1.7-8.77-20.78,45.64-24.81,216.39-6.4,295.91Z"/>
    <path class="cls-1" d="M751.94,439.64c1.82,3.96,4.41,7.69,7.26,10.96,1.48,1.7,4.29,2.17,7.36,3.6,1.87-6.5,3.18-11.84,4.93-17.03,9.99-29.73,38.92-45.83,68.56-38.23,5.17,1.32,10.32,2.7,15.12,3.95,7.03-7.31,13.1-14.41,19.98-20.54,7.34-6.54,15.43-12.19,23.26-18.14,3.48-2.64,7.16-4.99,10.66-7.61,11.48-8.61,21.68-18.13,25.82-33.07,1.46-5.25,4.94-9.87,7.2-14.93.73-1.64.5-3.75.81-6.56-7.43,1.52-12.29,5.19-16.68,9.13-11.4,10.22-23.26,20.07-33.46,31.49-21.18,23.71-46.29,39.59-76.8,46.89-14.16,3.39-28.06,8.11-41.8,13.05-5.98,2.15-11.83,5.64-16.74,9.78-8.21,6.93-10.02,17.32-5.46,27.25Z"/>
    <path class="cls-1" d="M1178.43,387.1c2.78-1.06,5.72-2.48,8.8-3.32,14.55-3.96,24.43,2.3,27.61,17.49.68,3.27.74,6.67,1.38,9.95.49,2.53,1.44,4.96,2.15,7.33,1.58-.35,2.17-.31,2.49-.59.81-.7,1.72-1.42,2.21-2.35,7.89-15.2,11.24-31.48,9.1-48.52-.81-6.42-2.69-13.73-6.54-18.52-10.72-13.35-23.1-25.15-38.68-32.56-2.48-1.18-5.15-1.8-7.28,1.58,3.77,19.66,5.58,39.44-3.34,58.71-1.44,3.1-2.41,7.62,2.09,10.79Z"/>
    <path class="cls-1" d="M857.62,534.94c-5.47-2.34-11.39-3.19-18.49-.08.52,9.41,4.21,16.19,8.36,22.66,7.76,12.08,15.47,24.21,23.74,35.92,9.57,13.54,20.2,26.18,32.94,36.73,1.91,1.58,4.06,4.04,7.03,1.15-3.15-15.1-6.8-30.16-9.35-45.42-4.48-26.72-21.67-41.31-44.23-50.95Z"/>
    <path class="cls-1" d="M1184.67,540.42c-15.02,2.13-30,3.16-45-.15-6.12-1.35-11.7.75-17.11,3.5-15.68,7.98-24.41,21.31-27.63,38.71-.35,1.87.79,4.04,1.48,7.2,20.52-5.5,40.5-9.94,59.87-16.35,12.85-4.25,23.85-12.86,33.11-23.26,1.93-2.16,2.71-5.42,4.76-9.71-4.31,0-6.94-.31-9.48.05Z"/>
    <path class="cls-1" d="M859.25,704.66c-17.93-3.71-36.03-6.75-53.2-13.72-.98-.4-2.55.75-5.09,1.6,3.21,3.59,5.43,6.68,8.2,9.08,9.97,8.62,20.7,16.03,33.08,20.5,12.96,4.68,24.35,11.77,33.37,22.66,1.36,1.64,3.22,2.85,5.22,4.58,16.22-3.38,32.45-6.77,49.67-10.36-1.37-2.83-1.48-3.52-1.85-3.76-21.65-13.8-44.2-25.36-69.41-30.57Z"/>
    <path class="cls-1" d="M1120.31,610.28c3.88,1.22,5.76,2.17,7.72,2.37,13.44,1.36,26.8,1.42,40.3-.32,40.47-5.2,68.05-38.02,66.75-80.37-.06-2.02-1.14-4-1.77-6.09-7.18-.36-10.7,2.82-11.45,9.43-2.09,18.53-12.79,31.38-26.17,42.48-15.85,13.15-33.71,21.85-53.69,25.82-6.77,1.34-13.55,2.59-21.69,6.69Z"/>
    <path class="cls-1" d="M762.73,557.18c-1.67-2.85-3.59-5.55-5.51-8.23-10.3-14.28-11.72-29.38-4.33-45.51,2.97-6.49,5.38-13.24,8.29-20.48-5.17-5.24-9.37-7.8-13.92-3.22-10.89,10.97-20.26,23.26-25.25,38.27-3.89,11.71-3.23,23.58,6.1,32.51,8.97,8.58,19.26,15.56,29.59,21.85,8.37-7.3,8.85-8.69,5.04-15.18Z"/>
    <path class="cls-1" d="M884.59,457.61c-12.31-.66-23.42,3.55-32.46,13.11-9.17,9.69-15.95,20.6-14.79,35.47,8.04,1.32,15.38,2.59,22.74,3.71,7.86,1.2,14.47,7.17,23.31,6.76.96-19.24,1.91-38.02,2.79-56.8.02-.43-.61-.89-1.6-2.25Z"/>
    <path class="cls-1" d="M1016,329.02c-7.78,1-14.44,4.75-18.78,11.65-5.99,9.51-9.27,20.09-9.4,31.47-.03,3.19.5,7.02,2.21,9.48,5.58,8,10.98,16.28,17.94,22.8,1.75-.98,2.9-1.27,3.46-2.02.96-1.31,1.82-2.82,2.26-4.39,3.67-12.95,5.64-25.77,1.77-39.36-3.85-13.53-2.99-14.36,9.2-26.36-4.13-1.64-6.52-3.55-8.65-3.28Z"/>
    <path class="cls-1" d="M1252.58,507.63c5.66,18.63,5.38,36.8,1.92,56.71,3.26-1.4,4.63-1.53,5.12-2.27,15.22-23.22,22.61-48.97,22.72-76.94,0-1.63-1.78-3.27-3.43-6.1-9.37,10.18-17.8,19.34-26.33,28.6Z"/>
    <path class="cls-1" d="M893.73,428.76c5.03-12.04,9.01-23.67,11.35-38.06-9.54,3.79-14.77,9.97-20.27,15.66-2.97,3.07-6.3,6.24-5.09,12.45,3.62,3.4,7.42,7.84,14.01,9.95Z"/>
  </g>
  <path class="cls-1" d="M1052.72,325.59c-3.24,4.9-6.14,10.08-6.06,15.87,4.86,4.07,9.3,6.32,13.33,1.36,5.97-7.34,9.31-15.74,6.66-27.45-7.18,1.98-10.95,5.71-13.93,10.22Z"/>
  <path class="cls-1" d="M1088.53,340.92c-.81,2.53-1.37,5.14-2.19,8.27,5.2,3.92,9.37,4.83,13.3,2.3,2.06-1.33,3.75-3.94,4.66-6.35,2.57-6.83-1.02-11.91-11.59-16.41-1.41,4.08-2.88,8.11-4.18,12.19Z"/>
</svg>